PathFileType	4	(X/Y/Z)	5_coords_data.trc
DataRate	CameraRate	NumFrames	NumMarkers	Units	OrigDataRate	OrigDataStartFrame	OrigNumFrames
30.0	30.0	9	21	m	30.0	30	59
Frame#	Time	THUMB_TIP	THUMB_IP	THUMB_MCP	THUMB_CMC	INDEX_TIP	INDEX_DIP	INDEX_PIP	INDEX_MCP	MIDDLE_TIP	MIDDLE_DIP	MIDDLE_PIP	MIDDLE_MCP	RING_TIP	RING_DIP	RING_PIP	RING_MCP	PINKY_TIP	PINKY_DIP	PINKY_PIP	PINKY_MCP	WRIST
X1	Y1	Z1	X2	Y2	Z2	X3	Y3	Z3	X4	Y4	Z4	X5	Y5	Z5	X6	Y6	Z6	X7	Y7	Z7	X8	Y8	Z8	X9	Y9	Z9	X10	Y10	Z10	X11	Y11	Z11	X12	Y12	Z12	X13	Y13	Z13	X14	Y14	Z14	X15	Y15	Z15	X16	Y16	Z16	X17	Y17	Z17	X18	Y18	Z18	X19	Y19	Z19	X20	Y20	Z20	X21	Y21	Z21
28	0.9666666666666625	0.506958074069116	0.0005994109605992337	-0.15988434841949975	0.5020809815093431	-0.006585391984658462	-0.13861012517160598	0.48188036483276575	-0.022131384058231895	-0.12074739256054168	0.4750069880374984	-0.028299852642656664	-0.07710570736446742	0.5014647221357088	-0.02980479336010078	-0.09524325954047233	0.5159739145248968	-0.02193738132948153	-0.10269893953320242	0.5285650522034733	-0.0044166898621218476	-0.11560236758410145	0.4935756443304373	0.01974527864991449	-0.11796387310340439	0.5035007963530022	-0.021649066575893494	-0.08406250386640368	0.5204448187075928	-0.016182300091137525	-0.08738132453770778	0.5356477402225134	0.005965133820454271	-0.09868494778615522	0.4986918859481123	0.0309593385064435	-0.10107293605331674	0.5040566775578417	-0.007351841968797346	-0.07141891513692913	0.5217732066996201	-0.004470033701713616	-0.07309813408640878	0.5374083561986659	0.013714328461814196	-0.07981014212038404	0.5047878623506848	0.0374001707596503	-0.0829093500443343	0.5074511686169609	-0.009264501299224737	-0.05526138668941946	0.5244164001241506	-0.007340085043991751	-0.05647692853734462	0.5370867511443265	0.008953204333696285	-0.06032438812523419	0.5099464565017313	0.03269824036331903	-0.06100344752251968	0.4622830810018609	-0.023011742144276925	-0.051989820119430985
29	0.9999999999999956	0.5069757334571359	0.0005419961309987009	-0.15987597581344148	0.5020953763048756	-0.006632495900909419	-0.13859902165758384	0.4818716844766364	-0.022153501462230163	-0.1207406713641816	0.47501492984120874	-0.02832379269835017	-0.07709662913696566	0.5014464658523993	-0.029840005683361648	-0.09523318828041516	0.5159653736932136	-0.021999601722441753	-0.10269839965314459	0.528569412654246	-0.004486727279421565	-0.11559984389833644	0.49359841648131797	0.0196998056325165	-0.11798252020299882	0.5034925082655259	-0.021668443686564953	-0.08406107040142971	0.5204454213574801	-0.01623358180941792	-0.08738688068961303	0.5356667176357377	0.005899706986434161	-0.09869348127019922	0.4987242619546536	0.030911827236573264	-0.10110112116098813	0.5040433786326659	-0.007296910344201324	-0.0714459750850853	0.5217768808035291	-0.004509564171298219	-0.07310537318933769	0.5374263904178402	0.013660601047709942	-0.07982236088811534	0.504818350659511	0.03736053389298666	-0.08294482149612986	0.5074454021473863	-0.00925420092933349	-0.055263649859929626	0.5244167586189479	-0.007382752859840136	-0.05647639123317311	0.5370927741685332	0.008903575270564401	-0.06033465053180295	0.5099721673440946	0.032670335465869504	-0.06103980745978682	0.4622830810018608	-0.023011742144276925	-0.051989820119430985
30	1.0333333333333288	0.5070235396177919	0.0004779462044582905	-0.1598624835440477	0.5021353456515341	-0.0066885834725456395	-0.1385846450227866	0.4818909529717117	-0.022182314954057203	-0.12072606585746751	0.4750323655537003	-0.028350777685050232	-0.0770820531390447	0.5014395725954591	-0.02990033002454895	-0.09518109719767029	0.5159403091937994	-0.02205277044527587	-0.10267405701040844	0.5285642912746982	-0.004551998913668975	-0.11557242532658102	0.4936252987484071	0.019677889580184016	-0.11798393912982458	0.5035073404459471	-0.021693180854362226	-0.08405925086102078	0.5204682141973219	-0.016281466931731714	-0.08738221851201239	0.5357040575406248	0.005835722822809308	-0.09870072305015551	0.4987707250915885	0.030859834525506114	-0.1011236775895408	0.5040726755095216	-0.007358331072402358	-0.07142920209634404	0.5217982628198514	-0.004531648387366083	-0.07310652719959312	0.5374680600410312	0.013617853220586174	-0.07983207739493395	0.5048609532155807	0.03731683796232199	-0.0829714309405914	0.5074594812365469	-0.009289265239347255	-0.055265609860163434	0.5244345242891446	-0.0074470485218581794	-0.05647149166542528	0.537114670377049	0.008834248416399904	-0.060337404778476905	0.510017458747294	0.03262690898181386	-0.061068073041964044	0.462283081001861	-0.023011742144276925	-0.05198982011943101
31	1.0666666666666622	0.507066392479364	0.00037881135186756953	-0.15986453126887426	0.5021676583934683	-0.0067747793751586904	-0.13858476284753352	0.4819086824259634	-0.022250881669257483	-0.12072743520505996	0.47502715129796447	-0.028371459902509	-0.07708029267058203	0.5013397485381639	-0.029929253916962106	-0.09514117206066469	0.5158472585735558	-0.022105887424370252	-0.1026463095874258	0.528537336642624	-0.004657403805192639	-0.11555065656789124	0.49362997787782814	0.019611769706063376	-0.1180244421581115	0.5034324346070593	-0.021673593281181014	-0.08404984585527825	0.520414033933694	-0.016318896323139098	-0.08735930272872072	0.5357064189155537	0.005748473482508065	-0.09869877808816355	0.4987926480501226	0.03079599395003285	-0.10117731796546509	0.5040261291896095	-0.007363194650768068	-0.07140636916784648	0.5217490076435322	-0.0045318957085774825	-0.0731044049764899	0.537477903745144	0.01356105974712396	-0.0798443433517792	0.504884155195723	0.037272909762447015	-0.08302499711287167	0.5073883665881975	-0.009294975680138262	-0.0552542003231426	0.5243650875170235	-0.007461411931945494	-0.05644960422395168	0.5371032952031308	0.00877135472449353	-0.06032869827065915	0.5100402034341656	0.03260138191498263	-0.061104790407659454	0.462283081001861	-0.023011742144276925	-0.051989820119430985
32	1.0999999999999952	0.5071430202027983	0.00030701425197132703	-0.1598394976291857	0.5022242541912606	-0.006844203482259337	-0.13856355285953179	0.48193458287943514	-0.02230553264003965	-0.12072829175314861	0.4750210259907297	-0.02838511996704196	-0.07708048139478152	0.5008053023391572	-0.029878174060840035	-0.09499277835412673	0.5154060770791496	-0.02220655683970829	-0.10247366507993844	0.5283915993482763	-0.004968266862093174	-0.11536658573608424	0.4936793685056333	0.019558775896572622	-0.11803516165624334	0.5030227964190973	-0.02152702734768719	-0.08402542379655797	0.520077364405223	-0.016358642040826377	-0.08725489807675246	0.5356688136540981	0.005502815504291769	-0.09858595867683523	0.4988770131348167	0.03071516503221372	-0.10120297354712143	0.5036749447852044	-0.006871156794635791	-0.07149346693592981	0.5214853906531302	-0.004553746116479296	-0.07304833854942536	0.5374693920052603	0.013319287557701731	-0.07977487904634437	0.504996224935718	0.037184161724025167	-0.08304321738549139	0.5071023288201485	-0.009133399579231427	-0.055173182796025094	0.5241049928065648	-0.007536387906702635	-0.056338931946926324	0.537063934383048	0.008516931450285758	-0.060233645009506565	0.5101470594866963	0.03250852722267683	-0.06111035996223285	0.462283081001861	-0.023011742144276925	-0.051989820119430985
33	1.1333333333333284	0.5071580166305513	0.00037348210333942866	-0.1597958578095183	0.5022192253141214	-0.0068093636355339715	-0.13853521183099016	0.4819360186018188	-0.022318497460516507	-0.12073413620436618	0.47500273584679253	-0.028391086032193535	-0.07708848054108175	0.49987859274101765	-0.02956988403077887	-0.09484371491583754	0.5146788667843538	-0.022243834104012317	-0.10227882626084617	0.5280722421436244	-0.005313332697200579	-0.11516236038777083	0.49362939266199346	0.019565609995103816	-0.11805449179881655	0.5021360964538067	-0.02105151552325779	-0.08410870850440066	0.5193363442620494	-0.016257960133994165	-0.08713745446025561	0.5354707318777101	0.0052289499788577	-0.09842478275661715	0.4988704075749071	0.03069892367408511	-0.10122560797324204	0.5029903066922464	-0.0063439518504498915	-0.07149640387205466	0.5208590342228483	-0.0044765751086897065	-0.07298686706899968	0.5372610618591985	0.01302359873252501	-0.0796874180869139	0.505008027785522	0.03717218915610143	-0.08305018593447999	0.5065534688277934	-0.008707393033382194	-0.05508622990164083	0.5235890987630338	-0.007493345162810194	-0.05623226675859619	0.5369314035567964	0.008238784911109631	-0.06014314966755813	0.5102161764484673	0.03245203650677586	-0.0610910624881153	0.4622830810018608	-0.023011742144276925	-0.051989820119430985
34	1.1666666666666616	0.5071418155661351	0.0005072112846910004	-0.15975962788700657	0.5021966527653917	-0.0067127289398539736	-0.13851303220609473	0.4819432942851244	-0.022286474339861417	-0.12073439546180154	0.475000354661563	-0.028376794712244857	-0.07709274577775183	0.4990858989200878	-0.029325840436886352	-0.0946348832075429	0.5139990473085317	-0.022255592743047004	-0.10209206784331637	0.5276608714967533	-0.005574010073391755	-0.11501836632685686	0.4934882326492366	0.019656937827501553	-0.1180623959291438	0.5012512668605705	-0.0205372026426085	-0.08397406300738897	0.5185820363518406	-0.016197411096152026	-0.08694233492447545	0.5351055904758435	0.004963346488307985	-0.09828270738585715	0.4987529070169865	0.03076844514234156	-0.10123689251813014	0.5022319268777818	-0.006022508846669106	-0.07139561406468037	0.5201220047031881	-0.004404504676719823	-0.0729211231295282	0.5368623469876941	0.012771844919532982	-0.0796229089918859	0.5048739981966199	0.03725875407031398	-0.08306640370830348	0.5059965291509754	-0.008417931897986342	-0.0549957086957073	0.523049053137627	-0.007485696372209083	-0.05615431242828939	0.5366487867318784	0.00801460528843978	-0.06010398502159084	0.5101729503984275	0.032487339260207526	-0.06110340154706989	0.4622830810018609	-0.023011742144276925	-0.051989820119430985
35	1.1999999999999948	0.5070429616098227	0.0005930176624143746	-0.15976119471912098	0.5021072492833307	-0.006642965744707796	-0.13851785957696477	0.4818759121401054	-0.022259650005057252	-0.12075181977880767	0.47496658469494146	-0.0283802931204179	-0.07710907786093663	0.49899686094947515	-0.029342452725928614	-0.09454758453170761	0.5138153064985077	-0.022237805774784403	-0.10215926392655572	0.5273430479276384	-0.005525325900708422	-0.11518627668026066	0.4932109457021887	0.01977379428204329	-0.11811718262384571	0.5009834630442881	-0.020637526969091158	-0.08364038060823842	0.5182776654861596	-0.016319179335795075	-0.08684388425542966	0.5346822370087773	0.004843209224796086	-0.09835270233418492	0.4984876904864157	0.030867697792084092	-0.10132401817934639	0.5018831360421975	-0.006387955545917312	-0.07114881236488135	0.5197319294653837	-0.004547329020101021	-0.07289026788509706	0.5363596574961853	0.0126932813725682	-0.0797064246337259	0.5045591407268804	0.03741863853538341	-0.08318560275167075	0.5056632468680173	-0.008592659412527848	-0.05494792020215625	0.522702536258893	-0.007536996360664627	-0.05619218407084384	0.536191754498574	0.008037187928305212	-0.060229236710513806	0.509895445198883	0.0327019925833959	-0.061246576152980486	0.462283081001861	-0.023011742144276925	-0.051989820119430985
36	1.233333333333328	0.5069389913710545	0.0005706655311047415	-0.15982143317265735	0.5020065883885146	-0.006663112892345335	-0.13857657848879892	0.4817897485148267	-0.022273389788768472	-0.12078841836081891	0.47488388703224327	-0.028401370285573435	-0.07714615750950471	0.4999851267800134	-0.029799203957248888	-0.09477730382407984	0.5144477897315629	-0.022232981143705977	-0.10262482908276477	0.527289707841472	-0.005049487661727636	-0.11573293817649749	0.492859016765791	0.019891542956169794	-0.11820449593793686	0.5018211373813332	-0.0216361961467626	-0.08343495838611409	0.5188553563598779	-0.016679621884940876	-0.08707745140299666	0.5343908976733021	0.005029130672553395	-0.09877303041800808	0.4981296014340518	0.030992706995242925	-0.10144866503155522	0.5024273617869569	-0.007787840143246072	-0.07081809388691862	0.5200905029528792	-0.00490350373150561	-0.07298466897599709	0.5359885848556362	0.012941723630138346	-0.0799831567572587	0.5041436569497679	0.037626509960098975	-0.08334213346367558	0.5059279670302127	-0.009594899571271132	-0.05500800251031793	0.5228905394060507	-0.007787039984192834	-0.05642319935452944	0.5357298586141368	0.008308269838429472	-0.060534756600472195	0.5094771592207001	0.03302367128022987	-0.061444787989218624	0.462283081001861	-0.023011742144276925	-0.05198982011943096
